<mxfile host="app.diagrams.net" agent="Mozilla/5.0 (X11; Ubuntu; Linux x86_64; rv:133.0) Gecko/20100101 Firefox/133.0" version="24.9.1">
  <diagram name="PÃ¡gina-1" id="S1LxqCSoiejlppb5GJc7">
    <mxGraphModel dx="880" dy="519" grid="1" gridSize="10" guides="1" tooltips="1" connect="1" arrows="1" fold="1" page="1" pageScale="1" pageWidth="827" pageHeight="1169" math="0" shadow="0">
      <root>
        <mxCell id="0" />
        <mxCell id="1" parent="0" />
        <mxCell id="ZJHZbfnKI5M3YyzbJauu-1" value="" style="rounded=0;whiteSpace=wrap;html=1;" parent="1" vertex="1">
          <mxGeometry x="80" y="160" width="640" height="240" as="geometry" />
        </mxCell>
        <mxCell id="ZJHZbfnKI5M3YyzbJauu-21" value="&lt;b&gt;NMS NetTask Version&lt;br&gt;(1 byte)&lt;/b&gt;" style="text;html=1;align=center;verticalAlign=middle;whiteSpace=wrap;rounded=0;strokeColor=default;" parent="1" vertex="1">
          <mxGeometry x="80" y="160" width="160" height="40" as="geometry" />
        </mxCell>
        <mxCell id="ZJHZbfnKI5M3YyzbJauu-22" value="&lt;b&gt;Sequence Number&lt;br&gt;(2 bytes)&lt;/b&gt;" style="text;html=1;align=center;verticalAlign=middle;whiteSpace=wrap;rounded=0;strokeColor=default;" parent="1" vertex="1">
          <mxGeometry x="240" y="160" width="320" height="40" as="geometry" />
        </mxCell>
        <mxCell id="ZJHZbfnKI5M3YyzbJauu-23" value="&lt;b&gt;Type&lt;br&gt;(3 bits)&lt;/b&gt;" style="text;html=1;align=center;verticalAlign=middle;whiteSpace=wrap;rounded=0;strokeColor=default;" parent="1" vertex="1">
          <mxGeometry x="660" y="160" width="60" height="40" as="geometry" />
        </mxCell>
        <mxCell id="ZJHZbfnKI5M3YyzbJauu-24" value="&lt;b&gt;Flags&lt;br&gt;(5 bits)&lt;/b&gt;" style="text;html=1;align=center;verticalAlign=middle;whiteSpace=wrap;rounded=0;strokeColor=default;" parent="1" vertex="1">
          <mxGeometry x="560" y="160" width="100" height="40" as="geometry" />
        </mxCell>
        <mxCell id="ZJHZbfnKI5M3YyzbJauu-26" value="&lt;b&gt;Window Size&lt;br&gt;(2 bytes)&lt;/b&gt;" style="text;html=1;align=center;verticalAlign=middle;whiteSpace=wrap;rounded=0;strokeColor=default;" parent="1" vertex="1">
          <mxGeometry x="80" y="200" width="320" height="40" as="geometry" />
        </mxCell>
        <mxCell id="ZJHZbfnKI5M3YyzbJauu-27" value="&lt;b&gt;Checksum&lt;br&gt;(2 bytes)&lt;/b&gt;" style="text;html=1;align=center;verticalAlign=middle;whiteSpace=wrap;rounded=0;strokeColor=default;" parent="1" vertex="1">
          <mxGeometry x="400" y="200" width="320" height="40" as="geometry" />
        </mxCell>
        <mxCell id="ZJHZbfnKI5M3YyzbJauu-28" value="&lt;b&gt;Agent Identifier&lt;br&gt;(32 bytes)&lt;/b&gt;" style="text;html=1;align=center;verticalAlign=middle;whiteSpace=wrap;rounded=0;strokeColor=default;" parent="1" vertex="1">
          <mxGeometry x="80" y="280" width="640" height="60" as="geometry" />
        </mxCell>
        <mxCell id="ZJHZbfnKI5M3YyzbJauu-29" value="&lt;b&gt;Data&lt;/b&gt;" style="text;html=1;align=center;verticalAlign=middle;whiteSpace=wrap;rounded=0;strokeColor=default;" parent="1" vertex="1">
          <mxGeometry x="80" y="340" width="640" height="60" as="geometry" />
        </mxCell>
        <mxCell id="dHq7F1R3947pLLU_Wdcz-1" value="&lt;b&gt;Message ID&lt;br&gt;(2 bytes)&lt;/b&gt;" style="text;html=1;align=center;verticalAlign=middle;whiteSpace=wrap;rounded=0;strokeColor=default;" parent="1" vertex="1">
          <mxGeometry x="80" y="240" width="320" height="40" as="geometry" />
        </mxCell>
        <mxCell id="dHq7F1R3947pLLU_Wdcz-2" value="" style="text;html=1;align=center;verticalAlign=middle;whiteSpace=wrap;rounded=0;fillColor=#BABABA;strokeColor=#36393d;" parent="1" vertex="1">
          <mxGeometry x="400" y="240" width="320" height="40" as="geometry" />
        </mxCell>
      </root>
    </mxGraphModel>
  </diagram>
</mxfile>
